<?xml version="1.0" encoding="UTF-8"?><svg id="Layer_2" xmlns="http://www.w3.org/2000/svg" viewBox="0 0 228.65 270.9"><defs><style>.cls-1{fill:#1b1e27;}</style></defs><g id="Layer_1-2"><path class="cls-1" d="M.1,0c15.3,11.1,29.2,24,42.5,37.5,2.87,2.93,5.03,4.77,6.5,5.5v2c.2.07.8.33,1.8.8,2.3,1.2,3.7,2.5,5.5,4.3l1.6,1.6c1.7,1.9,3.4,3.8,5.1,5.8,4.4,5.1,9.1,9.8,13.9,14.5,1.5,1.5,3,3,4.5,4.6,4.1,4.1,8.1,8.1,12.5,11.8,5.2,4.5,10,9.3,14.8,14.2l4.9,4.9c6.6,6.5,12.5,13.3,18.3,20.5,2.1,2.4,4.1,4.8,6.2,7.2.5.6,1.1,1.3,1.7,1.9,2.8,3.2,5.6,6.4,8.4,9.6,16.9,19.1,31.8,40.1,44.9,62,2.8,4.7,5.7,9.2,8.7,13.7,5.9,8.7,11.5,17.6,17.1,26.6.2.27.7,1.07,1.5,2.4,1.4,2.3,2.9,4.7,4.3,7,.4.7.9,1.4,1.3,2.1,1.93,3.27,2.77,5.8,2.5,7.6-.2.6-.4,1.2-.6,1.8-1.3.3-2.6.7-4,1-4.7-6.3-9.2-12.7-13.5-19.2-5.4-8.1-10.9-16.1-16.5-24.1-4.3-6.1-8.5-12.3-12.8-18.5-12.5-18.3-25.3-36.3-39.9-53.1-3.9-4.4-7.5-9-11.1-13.6-11.7-15-23.8-29.7-36.7-43.7-2.1-2.3-4.2-4.7-6.2-7-2.2-2.5-4.4-4.9-6.8-7.2-2.3-2.3-4.5-4.6-6.6-7-8.6-9.9-17.7-19.4-27.1-28.6-2.8-2.8-5.5-5.6-8.1-8.7-3.5-4.1-7.3-7.9-11.1-11.7-.7-.7-1.3-1.3-2-2-1.4-1.4-2.8-2.8-4.2-4.2-2.1-2.1-4.3-4.3-6.4-6.4-1.4-1.4-2.7-2.7-4.1-4.1-.2-.2-.83-.83-1.9-1.9C6.6,7.5,4.3,5.3,1.6,3.2c-.5-.4-1-.8-1.6-1.2V0h.1Z"/></g></svg>