<svg xmlns="http://www.w3.org/2000/svg" xmlns:xlink="http://www.w3.org/1999/xlink" viewBox="0 0 210 122" width="210" height="122">
<path transform="matrix(0.651402 0 0 0.651402 104.782 61.3749)" fill="#aaccf6" fill-rule="evenodd" d="M70.1 93.06C69.07 92.77 67.56 92.43 66.75 92.29C65.95 92.16 64.63 91.77 63.82 91.43C63.02 91.1 62.05 90.82 61.67 90.82C61.29 90.82 60.36 90.5 59.6 90.1C58.84 89.71 57.74 89.31 57.14 89.22C56.54 89.13 55.64 88.85 55.14 88.59C54.64 88.34 53.83 88.05 53.35 87.94C52.87 87.84 51.97 87.5 51.35 87.19C50.73 86.89 49.83 86.55 49.35 86.45C48.87 86.35 48.1 86.06 47.65 85.8C47.19 85.53 46.29 85.19 45.65 85.04C45 84.88 44.14 84.56 43.72 84.32C43.31 84.07 42.19 83.74 41.23 83.58C40.26 83.42 39.12 83.07 38.7 82.8C38.27 82.54 37.76 82.32 37.57 82.32C37.38 82.33 35.88 81.66 34.22 80.85C29.22 78.38 28.12 78.03 24.98 77.91C23.46 77.86 19.53 77.7 16.22 77.55C9.22 77.24 3.42 77.63 1.26 78.55C0.61 78.83 -0.58 79.17 -1.39 79.3C-2.19 79.43 -3.28 79.75 -3.81 80.02C-4.34 80.29 -5.37 80.63 -6.1 80.79C-6.82 80.94 -7.86 81.29 -8.4 81.57C-8.94 81.84 -9.56 82.07 -9.79 82.07C-10.01 82.07 -10.96 82.41 -11.9 82.82C-13.24 83.41 -13.97 83.57 -15.27 83.57C-16.18 83.57 -17.15 83.46 -17.41 83.32C-18.03 82.98 -19.15 81.06 -19.15 80.32C-19.15 79.48 -17.78 77.48 -16.44 76.35C-15.19 75.31 -12.1 73.57 -11.49 73.57C-11.28 73.57 -10.53 73.3 -9.82 72.98C-9.11 72.65 -8.02 72.3 -7.4 72.2C-6.78 72.09 -5.86 71.8 -5.35 71.54C-4.83 71.28 -3.82 70.94 -3.1 70.79C-2.37 70.63 -1.35 70.29 -0.82 70.03C-0.3 69.76 1.04 69.44 2.14 69.32C3.25 69.19 4.79 68.84 5.56 68.54C6.91 68.02 7.35 67.99 15.72 67.97C24.37 67.95 24.49 67.95 26.1 68.55C27.16 68.94 28.59 69.21 30.22 69.33C31.86 69.45 33.12 69.69 33.85 70.02C34.47 70.3 35.88 70.61 36.98 70.7C38.07 70.8 39.54 71.11 40.22 71.39C41.03 71.71 42.73 72 44.98 72.22C46.9 72.4 48.98 72.72 49.6 72.95C50.22 73.17 52 73.46 53.56 73.6C55.11 73.73 57.42 74.07 58.68 74.34C59.94 74.62 62.21 74.9 63.72 74.96C65.24 75.02 67.81 75.26 69.44 75.49C71.96 75.85 72.67 75.87 74.19 75.6C75.17 75.43 77.66 75.19 79.72 75.07C82.36 74.91 83.91 74.69 84.93 74.34C85.73 74.06 87.36 73.7 88.56 73.55C89.75 73.39 91.29 73.05 91.98 72.8C92.66 72.55 93.77 72.22 94.45 72.07C95.12 71.92 95.94 71.59 96.27 71.33C96.61 71.06 97.3 70.71 97.8 70.55C98.31 70.38 98.99 70.04 99.32 69.78C99.65 69.53 100 69.32 100.2 69.32C100.8 69.32 108.3 64.42 111.9 61.62C113.3 60.56 115.7 58.71 117.3 57.5C118.9 56.3 120.8 54.89 121.5 54.38C124 52.4 126.3 50.3 127.2 48.96C127.8 48.18 128.8 46.74 129.6 45.75C130.3 44.76 131.1 43.61 131.3 43.19C131.5 42.78 131.9 42.13 132.3 41.74C132.6 41.35 132.9 40.9 132.9 40.73C132.9 40.57 133.1 40.02 133.5 39.51C133.9 38.87 134.3 37.76 134.6 36.01C134.9 34.6 135.3 32.6 135.5 31.57C136.1 28.97 135.9 23.93 135.2 22.32C134.9 21.7 134.6 20.65 134.4 19.98C134.1 18.8 132.8 16.74 131.6 15.65C130.4 14.61 128.4 14.24 127.3 14.86C126.4 15.3 125 16.8 124 18.32C121.6 21.97 119.1 24.75 115.3 28C114.1 29.04 112.8 30.29 112.5 30.79C110.2 34.18 106.4 38 104.3 39.04C103.3 39.52 102.4 40.23 102 40.73C101.1 41.87 99.79 42.72 95.48 44.93C94.79 45.28 93.86 45.78 93.41 46.04C92.85 46.36 91.82 46.57 90.18 46.69C88.85 46.79 87.3 47.04 86.74 47.24C86.18 47.43 84.18 47.7 82.29 47.83C80.37 47.96 77.99 48.29 76.91 48.58C75.41 48.98 73.67 49.14 69.1 49.33C65.87 49.45 62.16 49.73 60.85 49.93C59.54 50.13 54.93 50.42 50.6 50.57C42.34 50.85 40.99 50.96 35.1 51.83C30.08 52.56 25.64 52.4 23.68 51.41C21.89 50.51 21.54 50.05 21.41 48.49C21.31 47.34 21.38 47.07 21.96 46.39C22.7 45.51 25.42 43.57 25.91 43.57C26.09 43.57 26.65 43.29 27.15 42.95C27.66 42.6 28.14 42.32 28.23 42.32C28.32 42.32 29.14 41.99 30.06 41.59C30.98 41.18 32.45 40.78 33.35 40.68C34.24 40.59 35.88 40.29 36.98 40.03C38.36 39.7 40.67 39.47 44.48 39.29C47.59 39.15 50.57 38.88 51.35 38.68C52.11 38.48 53.6 38.14 54.68 37.92C55.78 37.7 57.02 37.27 57.53 36.93C58.02 36.59 58.5 36.32 58.6 36.32C58.83 36.32 60.91 35.07 62.98 33.69C63.8 33.13 65.12 32.37 65.92 31.98C67.64 31.14 69.1 29.83 69.1 29.13C69.1 28.4 66.66 25.84 65.47 25.32C64.91 25.08 63.71 24.32 62.79 23.64C61.87 22.95 60.75 22.24 60.3 22.06C59.85 21.88 59.21 21.53 58.89 21.29C58.58 21.04 57.79 20.77 57.14 20.67C56.5 20.58 55.53 20.27 54.98 19.97C54 19.46 53.65 19.44 41.98 19.37C31.96 19.31 29.66 19.36 28.08 19.69C25.9 20.13 20.58 20.19 18.1 19.81C17.21 19.67 13.44 19.45 9.72 19.32C4.56 19.14 2.42 18.96 0.6 18.57C-0.71 18.28 -3.24 17.96 -5.02 17.84C-7.29 17.7 -8.65 17.48 -9.52 17.13C-10.21 16.86 -11.96 16.49 -13.4 16.31C-15.76 16.02 -16.16 16.03 -17.32 16.42C-18.84 16.92 -19.05 17.22 -20.08 20.19C-20.7 21.98 -20.89 23.01 -21 25.19C-21.36 32.32 -21.47 33.34 -22.2 36.45C-22.62 38.23 -23.3 40.43 -23.71 41.32C-25.14 44.45 -26.21 46.7 -26.43 47.07C-26.56 47.28 -26.89 47.95 -27.16 48.57C-27.44 49.19 -27.84 50.03 -28.07 50.45C-28.29 50.86 -28.65 51.53 -28.86 51.94C-30.25 54.63 -33.2 57.53 -35.47 58.41C-38.75 59.69 -42.95 58.99 -44.93 56.81C-46.07 55.57 -46.18 54.98 -46.16 50.19C-46.15 46.03 -45.87 43.45 -45.22 41.37C-44.62 39.48 -44.84 39.24 -47.3 39.02C-50.23 38.77 -50.83 39.01 -52.67 41.14C-54.7 43.49 -55.5 44.2 -56.88 44.84C-57.51 45.13 -58.25 45.57 -58.52 45.82C-59.38 46.6 -61.66 47.33 -64.47 47.71C-65.96 47.91 -67.59 48.29 -68.11 48.55C-68.63 48.81 -69.73 49.15 -70.55 49.3C-71.38 49.45 -72.69 49.8 -73.47 50.07C-75.36 50.74 -82.12 50.8 -83.6 50.17C-84.11 49.95 -85.09 49.6 -85.78 49.4C-87.58 48.85 -90.11 47.37 -91.34 46.15C-92.57 44.92 -92.72 43.93 -91.93 42.37C-90.91 40.37 -89.27 39.59 -85.55 39.32C-82.56 39.11 -79.7 38.34 -77.02 37.05C-76.2 36.65 -75.43 36.32 -75.31 36.32C-75.2 36.32 -74.8 36.1 -74.42 35.84C-74.05 35.57 -73.41 35.27 -73.01 35.17C-72.61 35.07 -70.36 34.07 -68.02 32.94C-65.67 31.81 -63.48 30.8 -63.14 30.7C-62.8 30.59 -62.39 30.4 -62.22 30.26C-61.63 29.79 -60.61 27.17 -60.26 25.24C-60.07 24.16 -59.69 22.91 -59.41 22.46C-58.69 21.29 -58.48 19.49 -58.98 18.73C-59.88 17.35 -62.78 16.34 -65.9 16.31C-66.52 16.31 -67.64 16.08 -68.4 15.81C-69.37 15.46 -71.18 15.2 -74.52 14.95C-77.15 14.75 -79.94 14.39 -80.78 14.15C-82.8 13.57 -86.85 13.58 -88.4 14.18C-89.19 14.48 -90.84 14.68 -93.9 14.84C-96.31 14.97 -99.69 15.26 -101.4 15.47C-104.3 15.84 -104.9 15.84 -107.9 15.48C-109.8 15.26 -113.5 15.02 -116.3 14.93C-119.9 14.82 -121.9 14.64 -123.4 14.28C-124.6 14.01 -127.2 13.69 -129.2 13.57C-131.4 13.44 -133.4 13.16 -134.5 12.85C-135.5 12.58 -137.6 12.24 -139.2 12.1C-140.7 11.96 -142.5 11.67 -143 11.45C-143.5 11.24 -144.7 10.9 -145.8 10.71C-146.8 10.51 -148 10.18 -148.4 9.965C-148.8 9.755 -149.6 9.465 -150.3 9.315C-151 9.175 -152 8.835 -152.7 8.575C-153.3 8.315 -154.7 7.975 -155.9 7.825C-160.6 7.185 -161.7 5.515 -160.3 1.025C-159.9 -0.095 -158 -2.185 -157.4 -2.185C-157.3 -2.185 -156.2 -2.845 -155 -3.655C-148.6 -7.915 -142.4 -11.93 -141.7 -12.29C-141.2 -12.51 -140 -13.15 -139.2 -13.7C-138.3 -14.25 -137.2 -14.83 -136.9 -15C-136.6 -15.16 -135.9 -15.54 -135.5 -15.83C-134.8 -16.32 -130.3 -18.57 -126.7 -20.25C-125.8 -20.66 -124.6 -21.2 -124.2 -21.44C-123.7 -21.68 -123 -21.96 -122.7 -22.06C-122.3 -22.15 -121.5 -22.49 -120.8 -22.81C-119.6 -23.38 -118.6 -23.75 -115.5 -24.72C-114.7 -24.99 -113.5 -25.38 -112.9 -25.6C-112.3 -25.82 -111.1 -26.16 -110.3 -26.36C-109.5 -26.56 -108.3 -26.95 -107.7 -27.21C-107 -27.47 -106 -27.81 -105.3 -27.95C-104.6 -28.1 -103.6 -28.43 -103 -28.69C-102.4 -28.95 -101.3 -29.28 -100.5 -29.42C-99.78 -29.56 -98.9 -29.84 -98.59 -30.05C-98.28 -30.25 -97.4 -30.55 -96.65 -30.71C-95.89 -30.87 -94.77 -31.27 -94.15 -31.6C-93.53 -31.92 -92.8 -32.19 -92.53 -32.19C-92.25 -32.19 -91.46 -32.46 -90.78 -32.77C-90.09 -33.09 -88.8 -33.5 -87.9 -33.67C-87.01 -33.85 -85.97 -34.15 -85.58 -34.35C-85.2 -34.55 -84.14 -34.78 -83.23 -34.86C-80.74 -35.1 -80.65 -35.25 -80.65 -39.12C-80.65 -39.12 -80.65 -42.3 -80.65 -42.3C-80.65 -42.3 -79.61 -44.43 -79.61 -44.43C-77.32 -49.12 -74.96 -51.41 -69.9 -53.83C-68.05 -54.72 -66.56 -55.06 -60.15 -56.06C-56.87 -56.58 -55.69 -56.54 -53.59 -55.83C-52.59 -55.49 -51.06 -55.09 -50.18 -54.93C-49.3 -54.78 -48.03 -54.44 -47.36 -54.17C-46.68 -53.91 -45.94 -53.69 -45.7 -53.69C-44.79 -53.69 -40.85 -51.46 -38.95 -49.88C-37.73 -48.85 -37 -48.97 -35.23 -50.5C-27.89 -56.85 -24.38 -59.74 -21.62 -61.69C-20.56 -62.45 -18.76 -63.74 -17.64 -64.56C-16.52 -65.39 -15.41 -66.18 -15.19 -66.31C-14.96 -66.45 -14.43 -66.81 -14.01 -67.1C-13.59 -67.4 -12.86 -67.82 -12.38 -68.03C-11.91 -68.24 -11.24 -68.58 -10.9 -68.79C-10.56 -68.99 -9.88 -69.35 -9.4 -69.59C-8.92 -69.82 -7.88 -70.37 -7.1 -70.79C-3.35 -72.83 1.51 -75.49 1.85 -75.69C2.06 -75.82 4.03 -76.83 6.22 -77.95C8.42 -79.06 11.18 -80.47 12.35 -81.08C13.52 -81.68 14.6 -82.18 14.75 -82.18C14.9 -82.19 15.53 -82.46 16.15 -82.79C16.76 -83.11 17.65 -83.46 18.12 -83.56C19.1 -83.75 23.13 -85.02 24.98 -85.7C25.66 -85.96 27.13 -86.4 28.22 -86.69C29.32 -86.98 31.28 -87.5 32.56 -87.84C33.85 -88.18 35.34 -88.68 35.87 -88.95C36.4 -89.22 37 -89.44 37.21 -89.44C37.42 -89.44 38.18 -89.71 38.91 -90.04C40.51 -90.78 43.79 -91.6 47.51 -92.19C49.05 -92.43 50.85 -92.84 51.51 -93.1C52.61 -93.52 53.45 -93.56 60.22 -93.53C66.04 -93.5 68.26 -93.4 70.1 -93.07C71.41 -92.84 73.43 -92.51 74.6 -92.33C75.77 -92.15 77.63 -91.77 78.72 -91.49C79.82 -91.2 81.4 -90.8 82.22 -90.6C84.08 -90.15 86.4 -89.34 87.72 -88.7C88.28 -88.43 89.23 -87.98 89.85 -87.7C91.45 -86.97 93.04 -86.02 95.28 -84.46C98.92 -81.91 100.4 -80.94 100.6 -80.94C100.7 -80.94 101.1 -80.65 101.6 -80.29C102.1 -79.94 102.7 -79.55 103 -79.44C103.3 -79.33 104.3 -78.72 105.2 -78.09C108.7 -75.63 117.2 -66.43 118.8 -63.4C119 -62.94 119.4 -62.28 119.6 -61.94C121.2 -59.68 123.2 -55.19 123.5 -53.44C123.7 -51.98 125.1 -47.91 126 -46.34C126.3 -45.67 126.6 -44.96 126.6 -44.77C126.6 -44.58 126.9 -43.77 127.2 -42.96C127.6 -42.16 128 -40.73 128.1 -39.78C128.3 -38.84 128.6 -37.39 128.9 -36.56C129.1 -35.74 129.5 -34.21 129.7 -33.17C129.9 -32.12 130.3 -30.83 130.5 -30.29C130.7 -29.75 131 -28.58 131.2 -27.69C131.4 -26.8 131.9 -25.51 132.2 -24.84C132.6 -24.16 132.9 -23.42 132.9 -23.19C132.9 -22.95 133.2 -22.27 133.6 -21.67C134 -21.06 134.3 -20.46 134.4 -20.34C134.4 -19.28 138.8 -14.05 141.2 -12.21C144.7 -9.575 151.1 -2.435 153 0.945C153.2 1.355 153.7 2.005 154 2.395C154.3 2.785 154.6 3.245 154.6 3.425C154.6 3.595 154.9 4.175 155.3 4.715C155.7 5.255 156.2 6.145 156.5 6.685C158.9 11.18 159.6 12.73 159.6 13.16C159.6 13.43 159.9 14.12 160.2 14.68C161 16.07 161.7 20.15 161.5 22.18C161.4 23.01 161.2 25.49 161.1 27.69C160.9 30.88 160.8 31.98 160.4 33.07C160.1 33.83 159.7 35.39 159.5 36.53C159.3 37.68 159 38.83 158.7 39.07C158.5 39.32 158.2 40.14 158 40.89C157.8 41.64 157.4 42.6 157.1 43.01C156.8 43.43 156.6 43.86 156.6 43.97C156.6 44.28 154.3 48.85 153.8 49.61C153.6 49.97 153.4 50.43 153.4 50.63C153.4 50.82 153 51.54 152.5 52.21C152 52.89 151.6 53.54 151.6 53.65C151.6 53.85 150.2 55.8 147.7 59.18C146.1 61.24 144.2 63.23 140.1 66.9C132 74.22 126.6 78.03 116.6 83.5C116 83.84 115.3 84.26 115.1 84.43C114.9 84.61 114.4 84.87 113.9 85.03C113.5 85.18 112.8 85.51 112.4 85.77C112 86.03 111.4 86.33 111 86.43C110.6 86.52 110 86.81 109.6 87.05C109.3 87.3 108.5 87.65 108 87.82C107.4 88 106.5 88.4 105.9 88.71C105.2 89.01 104.3 89.35 103.9 89.45C103.4 89.55 102.6 89.83 102.1 90.07C101.6 90.31 100.7 90.59 100.1 90.69C99.48 90.79 98.23 91.13 97.31 91.45C96.4 91.76 94.66 92.1 93.44 92.19C92.22 92.29 90.21 92.59 88.98 92.87C87.06 93.31 85.62 93.4 79.35 93.48C72.5 93.56 71.84 93.53 70.1 93.06ZM87.48 88.61C88.44 88.33 90.65 87.99 92.41 87.86C94.66 87.7 95.79 87.5 96.24 87.21C96.59 86.98 97.56 86.68 98.39 86.54C99.23 86.41 100.5 86.02 101.1 85.69C101.8 85.35 102.6 85.07 102.9 85.07C103.1 85.07 104 84.73 104.8 84.32C105.5 83.91 106.3 83.57 106.5 83.57C106.7 83.57 107.2 83.34 107.6 83.06C108 82.79 108.8 82.39 109.4 82.18C110 81.98 110.6 81.66 110.8 81.48C111.1 81.3 111.6 81 112.1 80.81C112.6 80.63 113.3 80.29 113.6 80.06C115 79.13 116.8 78.11 117.4 77.94C117.7 77.84 118.2 77.56 118.5 77.32C118.8 77.08 119.4 76.63 120 76.34C122.3 75.1 127.9 71.36 129.8 69.83C130.3 69.42 131.5 68.45 132.5 67.68C136.9 64.14 142.7 58.63 144.4 56.32C146.5 53.48 149 49.7 150 47.69C150.3 47.01 150.9 46.05 151.1 45.57C151.4 45.09 151.8 44.3 152 43.82C152.2 43.34 152.5 42.66 152.7 42.32C153.9 40.23 154.6 38.41 154.8 37.13C155 36.33 155.3 35.22 155.6 34.67C155.9 34.11 156.2 32.73 156.4 31.55C156.5 30.39 156.8 28.6 157.1 27.57C158 24.06 158 22.92 157.1 20.42C156.7 19.2 156.3 17.75 156.2 17.2C156.1 16.66 155.8 15.75 155.5 15.18C155.1 14.61 154.8 13.94 154.8 13.67C154.8 13.41 154.3 12.18 153.6 10.95C152.9 9.705 152.1 8.175 151.8 7.545C150.6 5.405 145.3 -0.605 138.4 -7.685C136.3 -9.835 134.4 -11.88 134.2 -12.24C133.9 -12.59 133.1 -13.75 132.4 -14.82C131.7 -15.89 131.1 -16.9 131.1 -17.06C131.1 -17.23 130.9 -17.56 130.6 -17.81C130.3 -18.05 129.9 -18.8 129.7 -19.47C129.5 -20.14 129.2 -20.76 129.1 -20.84C128.9 -20.93 128.5 -21.64 128.2 -22.41C127.8 -23.18 127.4 -23.98 127.2 -24.19C127.1 -24.4 126.7 -25.17 126.5 -25.9C126.3 -26.63 125.9 -27.59 125.6 -28.02C125.4 -28.46 125.1 -29.32 125 -29.94C124.9 -30.56 124.6 -31.41 124.3 -31.83C124.1 -32.26 123.7 -33.37 123.5 -34.31C123.3 -35.25 122.8 -36.53 122.5 -37.16C122.1 -37.79 121.9 -38.66 121.9 -39.08C121.9 -39.51 121.6 -40.41 121.2 -41.09C120.9 -41.76 120.5 -42.82 120.3 -43.44C120.2 -44.06 119.9 -44.86 119.6 -45.23C119.3 -45.6 119 -46.44 118.8 -47.1C118.7 -47.77 118.3 -48.73 118.1 -49.25C117.8 -49.76 117.4 -50.94 117.2 -51.87C117 -52.8 116.6 -53.96 116.4 -54.44C116.1 -54.92 115.7 -55.82 115.4 -56.44C115.1 -57.06 114.6 -57.93 114.3 -58.37C114 -58.81 113.4 -59.71 113 -60.37C111.9 -62.19 110.7 -63.61 108.6 -65.94C107.6 -67.11 106.2 -68.67 105.5 -69.4C104.1 -71.03 101.5 -73.27 99.6 -74.47C98.84 -74.96 96.85 -76.28 95.16 -77.4C93.48 -78.52 92.04 -79.44 91.98 -79.44C91.91 -79.44 91.04 -79.99 90.04 -80.65C87.33 -82.47 84.1 -83.9 80.6 -84.85C79.84 -85.05 78.4 -85.44 77.4 -85.71C69.49 -87.84 55.91 -88.65 51.7 -87.24C50.86 -86.96 49.12 -86.61 47.84 -86.47C45.68 -86.22 44.34 -85.87 40.85 -84.63C40.09 -84.36 38.97 -83.97 38.35 -83.77C37.73 -83.56 36.72 -83.19 36.1 -82.94C35.48 -82.69 34.27 -82.36 33.41 -82.2C32.55 -82.05 31.38 -81.75 30.8 -81.55C30.23 -81.35 29.04 -81.01 28.17 -80.81C27.29 -80.61 26.25 -80.27 25.85 -80.06C25.45 -79.86 24.41 -79.52 23.55 -79.32C22.68 -79.13 21.13 -78.67 20.1 -78.31C18.02 -77.59 5.22 -71.3 0.35 -68.6C-1.37 -67.65 -4.35 -66.06 -6.28 -65.08C-10.77 -62.79 -11.74 -62.21 -14.79 -60.04C-16.17 -59.06 -17.55 -58.13 -17.86 -57.96C-18.16 -57.8 -19.5 -56.85 -20.84 -55.84C-22.18 -54.84 -23.54 -53.88 -23.85 -53.71C-24.39 -53.43 -27.61 -51 -32.15 -47.47C-33.85 -46.14 -34.02 -45.93 -34 -45.16C-33.99 -44.69 -33.56 -43.42 -33.04 -42.33C-32.32 -40.8 -32.04 -39.83 -31.83 -38.02C-31.27 -33.26 -32.23 -29.43 -35.42 -23.69C-38.08 -18.89 -39.31 -17.27 -43.31 -13.28C-46.62 -9.985 -49.83 -7.505 -52.78 -5.995C-55.08 -4.805 -58.75 -3.735 -61.15 -3.555C-62.32 -3.465 -64.07 -3.175 -65.04 -2.915C-67.26 -2.315 -68.49 -2.315 -69.84 -2.925C-70.66 -3.295 -70.9 -3.545 -70.9 -4.005C-70.9 -5.255 -67.47 -7.265 -64.52 -7.735C-63.7 -7.865 -62.18 -8.235 -61.15 -8.555C-60.12 -8.875 -58.88 -9.225 -58.4 -9.315C-57.29 -9.545 -54.92 -10.74 -53.15 -11.95C-49.68 -14.34 -44.11 -20.1 -42.33 -23.15C-40.39 -26.46 -38.47 -30.28 -38.29 -31.19C-38.19 -31.67 -37.88 -32.88 -37.6 -33.88C-37.6 -33.88 -37.08 -35.69 -37.08 -35.69C-37.08 -35.69 -37.61 -37.32 -37.61 -37.32C-37.91 -38.22 -38.15 -39.11 -38.15 -39.3C-38.15 -39.85 -39.88 -42.99 -40.61 -43.78C-41.92 -45.19 -44.8 -47.38 -46.4 -48.18C-47.99 -48.98 -49.87 -49.59 -54.65 -50.86C-56.95 -51.47 -57.13 -51.48 -60.15 -51.19C-66.24 -50.63 -66.71 -50.53 -69.11 -49.31C-71.72 -47.98 -73.28 -46.69 -74.59 -44.77C-75.77 -43.04 -75.71 -43.14 -76.67 -41.06C-77.47 -39.34 -77.48 -39.27 -77.5 -35.34C-77.53 -30.66 -77.63 -30.46 -79.47 -31.39C-80.82 -32.06 -81.05 -32.07 -82.43 -31.46C-83.03 -31.2 -84.03 -30.91 -84.65 -30.81C-85.27 -30.71 -86.28 -30.38 -86.9 -30.07C-87.52 -29.76 -88.42 -29.42 -88.9 -29.32C-89.38 -29.22 -90.03 -28.98 -90.35 -28.77C-90.67 -28.57 -91.68 -28.15 -92.6 -27.83C-93.52 -27.51 -94.84 -27.05 -95.52 -26.81C-96.21 -26.57 -97.34 -26.16 -98.02 -25.88C-98.71 -25.61 -99.89 -25.25 -100.7 -25.07C-101.4 -24.9 -102.6 -24.52 -103.2 -24.24C-103.8 -23.96 -104.9 -23.65 -105.6 -23.55C-106.2 -23.46 -107.1 -23.18 -107.5 -22.94C-107.9 -22.69 -108.9 -22.37 -109.6 -22.21C-110.4 -22.06 -111.5 -21.7 -112.1 -21.43C-112.7 -21.16 -113.7 -20.86 -114.3 -20.77C-114.8 -20.68 -116 -20.29 -116.8 -19.9C-117.6 -19.51 -118.4 -19.19 -118.6 -19.19C-118.8 -19.19 -120.7 -18.4 -123.5 -17.07C-124.2 -16.75 -125.1 -16.41 -125.4 -16.31C-125.7 -16.21 -126.3 -15.93 -126.7 -15.69C-127 -15.46 -127.6 -15.18 -128 -15.09C-128.4 -14.99 -129.1 -14.64 -129.6 -14.3C-130.1 -13.97 -130.7 -13.69 -130.9 -13.68C-131.1 -13.67 -132.1 -13.17 -133 -12.56C-134.9 -11.37 -136.8 -10.26 -138.8 -9.195C-140.6 -8.205 -141.8 -7.465 -143.6 -6.255C-144.5 -5.665 -145.2 -5.185 -145.3 -5.185C-145.4 -5.185 -145.9 -4.865 -146.5 -4.475C-147.1 -4.075 -147.8 -3.575 -148.2 -3.345C-148.7 -3.045 -149 -2.505 -149.4 -1.335C-149.8 0.095 -150.4 1.025 -152.1 3.355C-152.4 3.725 -152.7 4.145 -152.7 4.295C-152.7 4.695 -151.5 5.065 -150.4 5.065C-149.8 5.065 -148.7 5.335 -148 5.655C-147.2 5.985 -145.9 6.325 -145.2 6.425C-144.4 6.515 -142.9 6.855 -141.9 7.175C-140.7 7.545 -139 7.805 -137.3 7.905C-135.7 7.995 -133.6 8.295 -132.6 8.575C-131.4 8.915 -129.4 9.145 -126.4 9.305C-124 9.425 -121 9.695 -119.8 9.905C-116.7 10.42 -110.6 10.7 -103.6 10.65C-98.81 10.62 -97.17 10.52 -94.98 10.1C-92.75 9.675 -91.16 9.575 -85.98 9.545C-80.09 9.505 -79.63 9.535 -78.85 10.01C-78.14 10.44 -77.41 10.53 -73.52 10.65C-69.99 10.77 -68.66 10.91 -67.35 11.31C-66.44 11.6 -64.47 11.94 -62.98 12.08C-59.26 12.42 -56.57 13.44 -55.26 15.02C-53.83 16.72 -53.6 17.65 -53.91 20.36C-54.05 21.62 -54.43 23.33 -54.76 24.17C-55.09 25.01 -55.47 26.39 -55.61 27.24C-55.78 28.27 -56.12 29.14 -56.65 29.86C-57.37 30.87 -58.65 31.82 -59.29 31.82C-59.44 31.82 -59.92 32.26 -60.35 32.79C-61.45 34.17 -65.64 36.58 -70.65 38.71C-71.82 39.21 -73.84 40.13 -75.15 40.76C-77.37 41.82 -77.74 41.92 -80.78 42.21C-84.03 42.53 -87.34 43.17 -87.74 43.56C-88.24 44.06 -87.56 44.74 -85.73 45.56C-83.97 46.35 -83.57 46.43 -80.92 46.52C-76.58 46.66 -73.76 46.1 -69.15 44.19C-68.39 43.88 -67.04 43.55 -66.15 43.45C-63.39 43.17 -59.66 41.77 -56.9 40C-53.33 37.7 -50.33 35.68 -47.86 33.91C-47.36 33.55 -46.65 32.74 -46.28 32.1C-45.92 31.47 -45.41 30.61 -45.15 30.19C-44.9 29.78 -44.49 28.5 -44.26 27.34C-43.66 24.34 -43.95 22.91 -46.01 18.68C-46.91 16.83 -47.65 15.18 -47.65 15.01C-47.65 14.83 -47.88 14.32 -48.16 13.86C-48.44 13.4 -48.64 12.9 -48.59 12.77C-48.49 12.45 -46.21 11.57 -45.5 11.57C-44.84 11.57 -44.24 12.23 -43.87 13.34C-43.72 13.81 -43.24 14.63 -42.83 15.17C-42.35 15.79 -41.98 16.62 -41.85 17.42C-41.54 19.27 -41.58 36.37 -41.9 38.94C-42.05 40.14 -42.34 41.76 -42.54 42.54C-43.07 44.55 -43.3 52.72 -42.85 53.57C-42.37 54.48 -41 55.07 -39.37 55.07C-37.3 55.07 -36.6 54.72 -34.9 52.81C-33.19 50.88 -32.06 49.11 -30.73 46.32C-30.25 45.29 -29.7 44.28 -29.52 44.07C-29.34 43.86 -29.06 43.19 -28.9 42.57C-28.73 41.96 -28.33 40.92 -28 40.27C-27.67 39.62 -27.29 38.32 -27.16 37.39C-27.03 36.46 -26.68 35.02 -26.39 34.19C-26.03 33.17 -25.84 31.9 -25.78 30.19C-25.69 27.83 -25.15 24.09 -24.64 22.45C-24.51 22.03 -24.3 20.93 -24.17 20.01C-23.78 17.16 -21.53 14.22 -19.19 13.48C-18.55 13.27 -17.54 12.93 -16.95 12.71C-16.19 12.43 -14.87 12.3 -12.33 12.28C-9.2 12.24 -8.59 12.3 -7.28 12.79C-6.14 13.22 -4.89 13.4 -2.15 13.57C-0.16 13.69 2.77 14.02 4.35 14.3C6.94 14.77 8.34 14.82 18.6 14.87C27.87 14.91 49.37 14.69 52.48 14.51C53.43 14.46 57.37 15.3 57.8 15.64C57.99 15.79 58.21 15.81 58.35 15.67C58.48 15.54 58.25 15.02 57.77 14.39C57.33 13.81 56.01 12.06 54.83 10.51C52.93 8.015 51.69 6.195 48.98 1.905C48.56 1.245 48.18 0.595 48.13 0.455C48.08 0.305 47.73 -0.315 47.34 -0.935C46.96 -1.555 46.56 -2.625 46.46 -3.315C46.37 -3.995 46.03 -5.175 45.72 -5.935C45.4 -6.695 45.03 -7.955 44.88 -8.735C44.74 -9.525 44.38 -10.65 44.08 -11.24C43.45 -12.47 43.17 -15.59 43.46 -18.27C43.77 -21.17 45.98 -23.87 47.33 -23.01C47.65 -22.8 47.72 -22.34 47.68 -20.66C47.6 -16.98 48.05 -12.69 48.62 -11.73C48.89 -11.26 49.28 -10.1 49.48 -9.145C49.68 -8.195 50.02 -7.085 50.22 -6.685C50.43 -6.285 50.76 -5.285 50.95 -4.455C51.14 -3.635 51.54 -2.615 51.84 -2.195C52.14 -1.785 52.44 -1.015 52.52 -0.495C52.6 0.015 52.99 1.015 53.38 1.725C53.78 2.425 54.1 3.165 54.1 3.355C54.1 3.555 54.42 4.215 54.8 4.825C55.19 5.435 55.63 6.275 55.77 6.695C55.91 7.105 56.3 7.855 56.63 8.355C56.96 8.865 57.56 9.855 57.98 10.57C60.04 14.13 62.07 16.88 63.72 18.35C64.41 18.96 66.27 20.65 67.85 22.1C69.43 23.55 71.25 25.09 71.89 25.52C73.27 26.46 74.1 27.69 74.1 28.8C74.1 29.95 73.04 31.56 71.66 32.52C69.61 33.94 67.75 35.07 67.45 35.07C67.29 35.07 67.03 35.23 66.87 35.42C66.71 35.62 66.1 36.02 65.52 36.31C64.95 36.6 63.74 37.29 62.85 37.83C61.96 38.38 60.94 38.96 60.6 39.13C60.26 39.29 59.58 39.68 59.1 39.98C58.62 40.28 57.72 40.61 57.1 40.7C56.48 40.8 55.46 41.08 54.84 41.33C54.21 41.57 52.63 41.85 51.34 41.95C50.04 42.05 47.85 42.34 46.48 42.61C45.1 42.88 42.34 43.21 40.35 43.35C38.31 43.48 35.96 43.8 34.98 44.07C34.01 44.34 32.16 44.66 30.86 44.78C28.89 44.98 28.42 45.11 28.05 45.57C27.41 46.37 27.48 47.23 28.24 47.73C29.21 48.36 41.04 48.07 44.98 47.32C47.53 46.83 48.74 46.78 61.85 46.7C69.62 46.65 76.88 46.49 77.98 46.35C81.08 45.95 85.87 44.9 87.19 44.33C87.85 44.05 88.59 43.82 88.83 43.82C89.07 43.82 89.82 43.54 90.5 43.2C91.17 42.85 91.84 42.57 91.99 42.57C92.23 42.57 95.76 40.82 97.7 39.76C98.09 39.54 98.98 39.28 99.66 39.19C101 39 100.8 39.15 104.9 34.91C108 31.62 109 30.43 110.7 28.37C112.1 26.59 112.4 26.1 112.5 24.99C112.7 23.76 112.8 23.56 115.4 20.95C116.8 19.43 118.4 17.69 118.8 17.07C120.4 14.66 122.3 12.83 124.2 11.93C125.7 11.19 126.2 11.07 127.8 11.07C129.5 11.07 129.8 11.16 131 11.85C133.5 13.4 135.9 16.36 137.8 20.26C137.8 20.26 138.7 22.19 138.7 22.19C138.7 22.19 138.7 29.07 138.7 29.07C138.7 35.86 138.7 35.97 138 38.05C137.7 39.21 137.4 40.45 137.4 40.8C137.4 41.16 137.1 41.84 136.9 42.32C136.6 42.8 136.2 43.48 136.1 43.82C134.3 47.2 130.9 51.31 129.2 52.06C128.6 52.33 126.7 53.79 125.1 55.32C122.4 57.8 119.1 60.42 116.6 62.09C116.1 62.42 115 63.14 114.2 63.68C113.4 64.22 112.4 64.85 112 65.08C111.6 65.3 110.4 65.94 109.5 66.49C107.9 67.42 99.59 71.61 96.72 72.96C96.04 73.28 95.03 73.68 94.48 73.84C93.92 74 93.36 74.22 93.22 74.33C92.8 74.65 89.31 75.83 87.64 76.22C86.77 76.42 85.66 76.75 85.19 76.94C84.72 77.14 83.13 77.48 81.65 77.69C80.18 77.91 78.02 78.28 76.85 78.51C73.69 79.14 61.59 79.14 60.44 78.51C59.89 78.21 58.56 78 56.06 77.81C54.09 77.66 51.63 77.33 50.6 77.08C49.57 76.83 47.54 76.56 46.1 76.49C44.57 76.41 42.8 76.14 41.85 75.85C40.96 75.58 39.49 75.22 38.6 75.07C37.71 74.91 36.07 74.52 34.96 74.2C33.86 73.88 31.89 73.53 30.59 73.43C29.08 73.31 27.9 73.08 27.33 72.78C26.33 72.26 21.13 71.7 17.22 71.7C15.11 71.7 8.9 72.19 7.66 72.46C6.81 72.64 6.97 73.28 7.91 73.42C8.36 73.49 12.78 73.59 17.75 73.64C26.34 73.72 26.82 73.75 27.78 74.25C28.33 74.54 29.34 74.85 30.01 74.95C31.09 75.09 33.36 76 35.1 76.99C35.44 77.19 36.12 77.51 36.6 77.71C37.08 77.91 37.88 78.29 38.37 78.56C38.87 78.82 40.03 79.22 40.95 79.43C41.87 79.64 42.92 79.97 43.3 80.16C43.67 80.35 44.48 80.59 45.1 80.7C45.72 80.8 46.83 81.21 47.57 81.6C48.31 82 49.11 82.32 49.35 82.32C49.58 82.32 50.29 82.6 50.93 82.93C51.56 83.27 52.5 83.62 53.03 83.72C53.55 83.81 54.4 84.1 54.91 84.36C55.42 84.62 56.68 84.99 57.7 85.18C58.73 85.38 59.88 85.7 60.27 85.9C60.66 86.1 61.48 86.34 62.1 86.43C62.72 86.53 64.07 86.87 65.1 87.19C66.13 87.51 67.73 87.85 68.65 87.93C69.57 88.01 70.8 88.26 71.4 88.48C73.05 89.1 75.52 89.28 80.85 89.2C84.85 89.13 86.04 89.03 87.48 88.61Z"/>
<path transform="matrix(0.651402 0 0 0.651402 36.6426 56.7337)" fill="#aaccf6" fill-rule="evenodd" d="M-1.175 6.77C-4.985 6.28 -7.615 4.64 -8.865 1.94C-9.635 0.29 -9.615 -2.41 -8.825 -3.52C-7.895 -4.82 -4.485 -6.28 -1.675 -6.59C1.805 -6.97 3.805 -6.7 5.365 -5.64C7.265 -4.35 8.075 -3.38 8.805 -1.54C9.635 0.57 9.625 1.49 8.735 3.19C7.655 5.24 6.275 6.14 3.525 6.58C1.395 6.93 0.385 6.97 -1.175 6.77Z"/>
</svg>
