<svg xmlns="http://www.w3.org/2000/svg" xmlns:xlink="http://www.w3.org/1999/xlink" viewBox="0 0 120 120" width="120" height="120">
  <path transform="translate(60 60)" fill="#232323" d="M5 -43L11 -43L11 -37L5 -37ZM-11 -35L-5 -35L-5 -29L-11 -29ZM-3 -35L3 -35L3 -29L-3 -29ZM5 -35L11 -35L11 -29L5 -29ZM-19 -27L-13 -27L-13 -21L-19 -21ZM5 -27L11 -27L11 -21L5 -21ZM13 -27L19 -27L19 -21L13 -21ZM21 -27L27 -27L27 -21L21 -21ZM-27 -19L-21 -19L-21 -13L-27 -13ZM-19 -19L-13 -19L-13 -13L-19 -13ZM-11 -19L-5 -19L-5 -13L-11 -13ZM-3 -19L3 -19L3 -13L-3 -13ZM5 -19L11 -19L11 -13L5 -13ZM13 -19L19 -19L19 -13L13 -13ZM21 -19L27 -19L27 -13L21 -13ZM29 -19L35 -19L35 -13L29 -13ZM-35 -11L-29 -11L-29 -5L-35 -5ZM-27 -11L-21 -11L-21 -5L-27 -5ZM-19 -11L-13 -11L-13 -5L-19 -5ZM-11 -11L-5 -11L-5 -5L-11 -5ZM5 -11L11 -11L11 -5L5 -5ZM13 -11L19 -11L19 -5L13 -5ZM21 -11L27 -11L27 -5L21 -5ZM29 -11L35 -11L35 -5L29 -5ZM37 -11L43 -11L43 -5L37 -5ZM-35 -3L-29 -3L-29 3L-35 3ZM-19 -3L-13 -3L-13 3L-19 3ZM13 -3L19 -3L19 3L13 3ZM21 -3L27 -3L27 3L21 3ZM29 -3L35 -3L35 3L29 3ZM37 -3L43 -3L43 3L37 3ZM-35 5L-29 5L-29 11L-35 11ZM-19 5L-13 5L-13 11L-19 11ZM13 5L19 5L19 11L13 11ZM29 5L35 5L35 11L29 11ZM37 5L43 5L43 11L37 11ZM-35 13L-29 13L-29 19L-35 19ZM-19 13L-13 13L-13 19L-19 19ZM-11 13L-5 13L-5 19L-11 19ZM-3 13L3 13L3 19L-3 19ZM5 13L11 13L11 19L5 19ZM29 13L35 13L35 19L29 19ZM-35 21L-29 21L-29 27L-35 27ZM21 21L27 21L27 27L21 27ZM29 21L35 21L35 27L29 27ZM-27 29L-21 29L-21 35L-27 35ZM-19 29L-13 29L-13 35L-19 35ZM-11 29L-5 29L-5 35L-11 35ZM-3 29L3 29L3 35L-3 35ZM5 29L11 29L11 35L5 35ZM13 29L19 29L19 35L13 35ZM-11 37L-5 37L-5 43L-11 43ZM-3 37L3 37L3 43L-3 43ZM5 37L11 37L11 43L5 43Z"></path>
</svg>